<svg width="94" height="94" viewBox="0 0 94 94" fill="none" xmlns="http://www.w3.org/2000/svg">
<path d="M47.1025 0.429016C21.435 0.429016 0.649902 21.2606 0.649902 46.9281C0.649902 72.5956 21.435 93.4272 47.1025 93.4272C72.8165 93.4272 93.6481 72.5956 93.6481 46.9281C93.6481 21.2606 72.8165 0.429016 47.1025 0.429016ZM47.149 84.1274C26.5964 84.1274 9.94972 67.4807 9.94972 46.9281C9.94972 26.3755 26.5964 9.72884 47.149 9.72884C67.7016 9.72884 84.3483 26.3755 84.3483 46.9281C84.3483 67.4807 67.7016 84.1274 47.149 84.1274ZM49.474 23.6786H42.4991V51.578L66.9111 66.2253L70.3986 60.5059L49.474 48.0906V23.6786Z" fill="#070E18"/>
</svg>
