<svg width="94" height="94" viewBox="0 0 94 94" fill="none" xmlns="http://www.w3.org/2000/svg">
<path d="M82.3347 56.5673C79.2657 65.4951 71.9189 73.028 61.8751 76.9804L56.0162 79.2589V84.4668H37.4165V79.2589L31.5112 76.9339C21.4673 72.9815 14.1205 65.4486 11.0515 56.5208H82.3347V56.5673ZM46.7164 0.768372C21.0489 0.768372 0.217255 21.6 0.217255 47.2675C0.217255 64.4256 11.7025 79.1659 28.1167 85.6292V93.7666H65.316V85.6292C81.7302 79.1659 93.2155 64.4256 93.2155 47.2675C93.2155 21.6 72.3839 0.768372 46.7164 0.768372ZM37.4165 47.2675V11.2772C40.3925 10.5332 43.5079 10.0682 46.7164 10.0682C49.9248 10.0682 53.0402 10.5332 56.0162 11.2772V47.2675H37.4165ZM65.316 47.2675V15.0901C76.4293 21.5535 83.9156 33.5037 83.9156 47.2675H65.316ZM9.51708 47.2675C9.51708 33.5502 17.0034 21.5535 28.1167 15.0901V47.2675H9.51708Z" fill="#070E18"/>
</svg>
